<svg xmlns="http://www.w3.org/2000/svg" xmlns:xlink="http://www.w3.org/1999/xlink" viewBox="0 0 507.5 287.98"><defs><style>.cls-1{isolation:isolate;}.cls-2{fill:#45b39c;}.cls-3{fill:#379982;}.cls-4{fill:#ffd05b;}.cls-5{fill:#f9b54c;}.cls-6{fill:none;stroke:#324a5e;stroke-linecap:round;stroke-linejoin:round;stroke-width:5px;}.cls-7{fill:#324a5e;}.cls-8{fill:#eadcb7;}.cls-10,.cls-12,.cls-9{mix-blend-mode:color-burn;}.cls-9{fill:url(#linear-gradient);}.cls-10{fill:url(#linear-gradient-2);}.cls-11{fill:#e2a442;}.cls-12{fill:#b1b1b1;}.cls-13{fill:#fff;opacity:0.3;}.cls-14{fill:#7ca841;}</style><linearGradient id="linear-gradient" x1="457.02" y1="151.29" x2="507.5" y2="151.29" gradientUnits="userSpaceOnUse"><stop offset="0" stop-color="#fff"/><stop offset="1" stop-color="#979797"/></linearGradient><linearGradient id="linear-gradient-2" x1="472.89" y1="117.75" x2="491.63" y2="117.75" xlink:href="#linear-gradient"/></defs><title>Asset 8</title><g class="cls-1"><g id="Layer_2" data-name="Layer 2"><g id="Layer_1-2" data-name="Layer 1"><circle class="cls-2" cx="217.3" cy="20.87" r="20.87"/><path class="cls-3" d="M234.43,45.76a30.08,30.08,0,0,1-34.25,0A40.81,40.81,0,0,0,176.09,83h82.16A40.15,40.15,0,0,0,234.43,45.76Z"/><circle class="cls-4" cx="29.46" cy="31" r="14.92"/><path class="cls-5" d="M41.7,48.79a20.69,20.69,0,0,1-12.24,3.83,20.69,20.69,0,0,1-12.24-3.83A29.17,29.17,0,0,0,0,75.38H58.72A28.69,28.69,0,0,0,41.7,48.79Z"/><line class="cls-6" x1="66.45" y1="35.18" x2="87.56" y2="56.28"/><line class="cls-6" x1="87.56" y1="35.18" x2="66.45" y2="56.28"/><path class="cls-7" d="M363.63,132.63h15.69a5.85,5.85,0,0,1,3.27.71,2.64,2.64,0,0,1,1,2.33,5,5,0,0,1-1.19,2.61q-1.19,1.63-2.71,3.59a38.54,38.54,0,0,0-3.13,4.89,39.89,39.89,0,0,0-3,7.14,31.51,31.51,0,0,0-.8,3.09q-.24,1.22-.52,3.18t-.49,3a6.81,6.81,0,0,1-1.4,3.33,3.22,3.22,0,0,1-2.41.93,2.91,2.91,0,0,1-2.31-1,4.39,4.39,0,0,1-.87-3,18.3,18.3,0,0,1,.64-4.1,48.84,48.84,0,0,1,2.07-6.21,60.46,60.46,0,0,1,8.72-15h-12.6a5,5,0,0,1-3-.72,2.61,2.61,0,0,1-1-2.25,2.05,2.05,0,0,1,1-2.1A7.18,7.18,0,0,1,363.63,132.63Z"/><path class="cls-7" d="M407.11,138.12H395.92l-1.34,7.63a13.23,13.23,0,0,1,6.17-1.79,10.56,10.56,0,0,1,4.23.85,10.79,10.79,0,0,1,5.78,5.89,11.41,11.41,0,0,1,.85,4.4,12.76,12.76,0,0,1-1.53,6.22,11.3,11.3,0,0,1-4.42,4.45,13.17,13.17,0,0,1-6.65,1.65,13.32,13.32,0,0,1-6.84-1.55,9.68,9.68,0,0,1-3.72-3.57,7.62,7.62,0,0,1-1.1-3.52,2.54,2.54,0,0,1,.77-1.74,2.51,2.51,0,0,1,1.92-.82,3.15,3.15,0,0,1,2.94,2.28,8,8,0,0,0,2.54,3.26,5.94,5.94,0,0,0,3.58,1.17,5.46,5.46,0,0,0,3.18-.94,6.11,6.11,0,0,0,2.11-2.59,9,9,0,0,0,.74-3.75,8.56,8.56,0,0,0-.8-3.86,5.56,5.56,0,0,0-2.14-2.39,5.79,5.79,0,0,0-3-.79,6.22,6.22,0,0,0-2.9.49,25.65,25.65,0,0,0-2.51,1.73,5,5,0,0,1-2.7,1.24,2.92,2.92,0,0,1-2-.84,2.54,2.54,0,0,1-.9-1.9q0-.12.26-1.6l2-11.28a5.4,5.4,0,0,1,1.22-2.94,4,4,0,0,1,2.92-.92H407q3.67,0,3.67,2.8a2.46,2.46,0,0,1-.9,2A4,4,0,0,1,407.11,138.12Z"/><path class="cls-7" d="M439.83,149.9a40.38,40.38,0,0,1-.47,6.64,15.47,15.47,0,0,1-1.74,5,11.58,11.58,0,0,1-4.15,4.29,11.26,11.26,0,0,1-12.07-.52,12.33,12.33,0,0,1-4.28-5.61,20.85,20.85,0,0,1-1.07-4.32,36,36,0,0,1-.34-5.12,49.22,49.22,0,0,1,.38-6.41,21.16,21.16,0,0,1,1.18-4.9A10.54,10.54,0,0,1,427.63,132a11.8,11.8,0,0,1,4.4.79,10,10,0,0,1,3.47,2.31A13.2,13.2,0,0,1,438,138.9Q439.83,142.78,439.83,149.9Zm-6.45-.47a39.23,39.23,0,0,0-.52-7.05,8.68,8.68,0,0,0-1.74-4.15,4.27,4.27,0,0,0-3.39-1.4A4.36,4.36,0,0,0,423.4,140q-1.21,3.13-1.21,9.66a41.52,41.52,0,0,0,.52,7.25,9.12,9.12,0,0,0,1.74,4.28,4.55,4.55,0,0,0,6.71-.06,9.35,9.35,0,0,0,1.72-4.31A43.91,43.91,0,0,0,433.37,149.42Z"/><path class="cls-8" d="M507.1,167.26c-1.2-5,1.89-30.88-21.65-40.7h-6.39c-23.54,9.82-20.45,35.7-21.65,40.7-1.06,4.44.21,6,1.48,6.57s4.44-.77,6.45-.41,7.81,2.6,16.92,2.6,14.91-2.25,16.92-2.6,5.18,1,6.45.41S508.17,171.7,507.1,167.26Z"/><path class="cls-9" d="M507.1,167.26c-1.2-5,1.89-30.88-21.65-40.7h-6.39c-23.54,9.82-20.45,35.7-21.65,40.7-1.06,4.44.21,6,1.48,6.57s4.44-.77,6.45-.41,7.81,2.6,16.92,2.6,14.91-2.25,16.92-2.6,5.18,1,6.45.41S508.17,171.7,507.1,167.26Z"/><path class="cls-8" d="M491.56,114.33c-.52-1-3.61.71-5.49,2.24s-2-4.12-3.81-4.12-2.08,5.55-3.81,4.12-5-3.2-5.49-2.24,1.77,1.14,5.5,8.72h7.6C489.78,115.48,492.05,115.25,491.56,114.33Z"/><path class="cls-10" d="M491.56,114.33c-.52-1-3.61.71-5.49,2.24s-2-4.12-3.81-4.12-2.08,5.55-3.81,4.12-5-3.2-5.49-2.24,1.77,1.14,5.5,8.72h7.6C489.78,115.48,492.05,115.25,491.56,114.33Z"/><path class="cls-11" d="M486.44,127h-8.36a.83.83,0,0,1,0-1.66h8.36a.83.83,0,0,1,0,1.66Z"/><path class="cls-12" d="M478.08,127h8.36a.83.83,0,0,0,.83-.83h-10A.83.83,0,0,0,478.08,127Z"/><path class="cls-11" d="M486.44,125.3h-8.36a.83.83,0,1,1,0-1.66h8.36a.83.83,0,1,1,0,1.66Z"/><path class="cls-12" d="M478.08,125.3h8.36a.83.83,0,0,0,.83-.83h-10A.83.83,0,0,0,478.08,125.3Z"/><path class="cls-11" d="M486.44,123.65h-8.36a.83.83,0,0,1,0-1.66h8.36a.83.83,0,0,1,0,1.66Z"/><path class="cls-12" d="M478.08,123.65h8.36a.83.83,0,0,0,.83-.83h-10A.83.83,0,0,0,478.08,123.65Z"/><circle class="cls-13" cx="482.26" cy="155.95" r="13.8"/><path class="cls-14" d="M483.82,145c0,.08,0,.15,0,.23,0,.65,0,1.29,0,1.94,0,.16.06.24.2.26a5.75,5.75,0,0,1,.94.25,5.94,5.94,0,0,1,2.61,1.71,4.74,4.74,0,0,1,1.06,2.23,9.51,9.51,0,0,1,.12.95c0,.14,0,.2-.17.19h-3c-.26,0-.27,0-.3-.26a2.32,2.32,0,0,0-.73-1.47,6.94,6.94,0,0,0-.63-.44c-.05,0-.09,0-.09.05s0,.08,0,.12c0,1.27,0,2.55,0,3.82,0,.15,0,.22.19.25a13.75,13.75,0,0,1,2,.53,5.77,5.77,0,0,1,2,1.07,3.89,3.89,0,0,1,1.21,2.18,5.47,5.47,0,0,1-.13,2.74,4.91,4.91,0,0,1-1.68,2.41,6.41,6.41,0,0,1-2.64,1.2,5.33,5.33,0,0,1-.77.15c-.12,0-.15.09-.15.19,0,.44,0,.88,0,1.33,0,.23,0,.23-.24.23h-2.69c-.24,0-.24,0-.24-.25,0-.44,0-.87,0-1.31,0-.15,0-.21-.2-.23a7.36,7.36,0,0,1-3.25-1.27,4.8,4.8,0,0,1-1.65-2.14,5.51,5.51,0,0,1-.37-1.91c0-.16.05-.21.21-.21h3c.13,0,.19,0,.22.18a2.88,2.88,0,0,0,.77,1.65,3,3,0,0,0,1.14.66c.08,0,.12,0,.12-.08s0-.07,0-.1c0-1.37,0-2.74,0-4.12a.24.24,0,0,0-.22-.28,14.71,14.71,0,0,1-2.41-.74,3.93,3.93,0,0,1-2.5-3.21,5.82,5.82,0,0,1,.08-2.27,4.81,4.81,0,0,1,1.38-2.36,5.54,5.54,0,0,1,2.7-1.4,5.79,5.79,0,0,1,.79-.15c.14,0,.19-.07.19-.22,0-.62,0-1.24,0-1.87,0-.08,0-.15,0-.23Zm0,15.16c0,.59,0,1.17,0,1.76,0,.11,0,.19.15.16A2.3,2.3,0,0,0,485.6,161a1.65,1.65,0,0,0-.56-2.32,8,8,0,0,0-1-.43c-.16-.06-.18,0-.18.13Q483.84,159.3,483.84,160.18Zm-3.17-8c0-.55,0-1.1,0-1.66,0-.15,0-.19-.19-.14l-.49.18a1.76,1.76,0,0,0-1.2,1.76,1.44,1.44,0,0,0,.83,1.31,5.39,5.39,0,0,0,.83.33c.19.07.22,0,.22-.15Q480.67,153,480.67,152.19Z"/><circle class="cls-2" cx="217.3" cy="123.39" r="20.87"/><path class="cls-3" d="M234.43,148.27a30.08,30.08,0,0,1-34.25,0,40.81,40.81,0,0,0-24.09,37.2h82.16A40.15,40.15,0,0,0,234.43,148.27Z"/><circle class="cls-2" cx="217.3" cy="225.9" r="20.87"/><path class="cls-3" d="M234.43,250.78a30.08,30.08,0,0,1-34.25,0A40.81,40.81,0,0,0,176.09,288h82.16A40.15,40.15,0,0,0,234.43,250.78Z"/><path class="cls-6" d="M294.31,15.08h0a40.66,40.66,0,0,1,23.12,36.68v75.87a17,17,0,0,0,10.11,15.56l8,3.55"/><path class="cls-6" d="M335.51,146.73h0a40.66,40.66,0,0,0-23.12,36.68v75.87a17,17,0,0,1-10.11,15.56l-8,3.55"/><path class="cls-7" d="M109.16,59.46V38.06q-6,4.59-8,4.59a2.38,2.38,0,0,1-1.75-.79A2.54,2.54,0,0,1,98.59,40a2.06,2.06,0,0,1,.75-1.76A16.74,16.74,0,0,1,102,36.81,19.86,19.86,0,0,0,106.56,34a19.26,19.26,0,0,0,3-3.32q1.32-1.83,1.72-2.26A2.06,2.06,0,0,1,112.8,28a2.41,2.41,0,0,1,2,1,4.22,4.22,0,0,1,.75,2.66V58.55q0,4.73-3.22,4.73a3,3,0,0,1-2.31-1A4.12,4.12,0,0,1,109.16,59.46Z"/><path class="cls-7" d="M150.53,45.77a40.28,40.28,0,0,1-.47,6.63,15.46,15.46,0,0,1-1.74,5,11.57,11.57,0,0,1-4.14,4.28,11.25,11.25,0,0,1-12.06-.52,12.31,12.31,0,0,1-4.27-5.6,20.83,20.83,0,0,1-1.07-4.32,36,36,0,0,1-.34-5.12,49.22,49.22,0,0,1,.38-6.4A21.14,21.14,0,0,1,128,34.88a10.53,10.53,0,0,1,10.35-6.94,11.77,11.77,0,0,1,4.4.79A10,10,0,0,1,146.22,31a13.17,13.17,0,0,1,2.53,3.75Q150.53,38.67,150.53,45.77Zm-6.45-.47a39.22,39.22,0,0,0-.52-7,8.67,8.67,0,0,0-1.74-4.14,4.26,4.26,0,0,0-3.39-1.4,4.35,4.35,0,0,0-4.32,3.13q-1.21,3.13-1.21,9.64a41.5,41.5,0,0,0,.52,7.25A9.1,9.1,0,0,0,135.17,57a4.54,4.54,0,0,0,6.7-.06,9.34,9.34,0,0,0,1.72-4.3A43.86,43.86,0,0,0,144.09,45.3Z"/><circle class="cls-2" cx="217.3" cy="123.87" r="20.87"/><path class="cls-3" d="M234.43,148.76a30.08,30.08,0,0,1-34.25,0A40.81,40.81,0,0,0,176.09,186h82.16A40.15,40.15,0,0,0,234.43,148.76Z"/><circle class="cls-4" cx="29.46" cy="134" r="14.92"/><path class="cls-5" d="M41.7,151.79a20.69,20.69,0,0,1-12.24,3.83,20.69,20.69,0,0,1-12.24-3.83A29.17,29.17,0,0,0,0,178.38H58.72A28.69,28.69,0,0,0,41.7,151.79Z"/><line class="cls-6" x1="66.45" y1="138.18" x2="87.56" y2="159.28"/><line class="cls-6" x1="87.56" y1="138.18" x2="66.45" y2="159.28"/><path class="cls-7" d="M109.16,162.46V141.06q-6,4.59-8,4.59a2.38,2.38,0,0,1-1.75-.79,2.54,2.54,0,0,1-.76-1.82,2.06,2.06,0,0,1,.75-1.76,16.74,16.74,0,0,1,2.66-1.46,19.86,19.86,0,0,0,4.55-2.82,19.26,19.26,0,0,0,3-3.32q1.32-1.83,1.72-2.26a2.06,2.06,0,0,1,1.51-.42,2.41,2.41,0,0,1,2,1,4.22,4.22,0,0,1,.75,2.66v26.93q0,4.73-3.22,4.73a3,3,0,0,1-2.31-1A4.12,4.12,0,0,1,109.16,162.46Z"/><path class="cls-7" d="M150.53,148.77a40.28,40.28,0,0,1-.47,6.63,15.46,15.46,0,0,1-1.74,5,11.57,11.57,0,0,1-4.14,4.28,11.25,11.25,0,0,1-12.06-.52,12.31,12.31,0,0,1-4.27-5.6,20.83,20.83,0,0,1-1.07-4.32,36,36,0,0,1-.34-5.12,49.22,49.22,0,0,1,.38-6.4,21.14,21.14,0,0,1,1.18-4.89,10.53,10.53,0,0,1,10.35-6.94,11.77,11.77,0,0,1,4.4.79,10,10,0,0,1,3.47,2.31,13.17,13.17,0,0,1,2.53,3.75Q150.53,141.67,150.53,148.77Zm-6.45-.47a39.22,39.22,0,0,0-.52-7,8.67,8.67,0,0,0-1.74-4.14,4.26,4.26,0,0,0-3.39-1.4,4.35,4.35,0,0,0-4.32,3.13q-1.21,3.13-1.21,9.64a41.5,41.5,0,0,0,.52,7.25,9.1,9.1,0,0,0,1.74,4.27,4.54,4.54,0,0,0,6.7-.06,9.34,9.34,0,0,0,1.72-4.3A43.86,43.86,0,0,0,144.09,148.3Z"/><circle class="cls-2" cx="217.3" cy="225.87" r="20.87"/><path class="cls-3" d="M234.43,250.76a30.08,30.08,0,0,1-34.25,0A40.81,40.81,0,0,0,176.09,288h82.16A40.15,40.15,0,0,0,234.43,250.76Z"/><circle class="cls-4" cx="29.46" cy="236" r="14.92"/><path class="cls-5" d="M41.7,253.79a20.69,20.69,0,0,1-12.24,3.83,20.69,20.69,0,0,1-12.24-3.83A29.17,29.17,0,0,0,0,280.38H58.72A28.69,28.69,0,0,0,41.7,253.79Z"/><line class="cls-6" x1="66.45" y1="240.18" x2="87.56" y2="261.28"/><line class="cls-6" x1="87.56" y1="240.18" x2="66.45" y2="261.28"/><path class="cls-7" d="M109.16,264.46V243.06q-6,4.59-8,4.59a2.38,2.38,0,0,1-1.75-.79,2.54,2.54,0,0,1-.76-1.82,2.06,2.06,0,0,1,.75-1.76,16.74,16.74,0,0,1,2.66-1.46,19.86,19.86,0,0,0,4.55-2.82,19.26,19.26,0,0,0,3-3.32q1.32-1.83,1.72-2.26a2.06,2.06,0,0,1,1.51-.42,2.41,2.41,0,0,1,2,1,4.22,4.22,0,0,1,.75,2.66v26.93q0,4.73-3.22,4.73a3,3,0,0,1-2.31-1A4.12,4.12,0,0,1,109.16,264.46Z"/><path class="cls-7" d="M150.53,250.77a40.28,40.28,0,0,1-.47,6.63,15.46,15.46,0,0,1-1.74,5,11.57,11.57,0,0,1-4.14,4.28,11.25,11.25,0,0,1-12.06-.52,12.31,12.31,0,0,1-4.27-5.6,20.83,20.83,0,0,1-1.07-4.32,36,36,0,0,1-.34-5.12,49.22,49.22,0,0,1,.38-6.4,21.14,21.14,0,0,1,1.18-4.89,10.53,10.53,0,0,1,10.35-6.94,11.77,11.77,0,0,1,4.4.79,10,10,0,0,1,3.47,2.31,13.17,13.17,0,0,1,2.53,3.75Q150.53,243.67,150.53,250.77Zm-6.45-.47a39.22,39.22,0,0,0-.52-7,8.67,8.67,0,0,0-1.74-4.14,4.26,4.26,0,0,0-3.39-1.4,4.35,4.35,0,0,0-4.32,3.13q-1.21,3.13-1.21,9.64a41.5,41.5,0,0,0,.52,7.25,9.1,9.1,0,0,0,1.74,4.27,4.54,4.54,0,0,0,6.7-.06,9.34,9.34,0,0,0,1.72-4.3A43.86,43.86,0,0,0,144.09,250.3Z"/></g></g></g></svg>