<svg xmlns="http://www.w3.org/2000/svg" viewBox="0 0 160 160"><defs><style>.cls-1{fill:#34495e;}.cls-2{fill:#ff8e31;}.cls-3{fill:#ff9d4d;}.cls-4{fill:#fff;}.cls-5{fill:#f28124;}</style></defs><title>Asset 4</title><g id="Layer_2" data-name="Layer 2"><g id="Layer_1-2" data-name="Layer 1"><circle class="cls-1" cx="80" cy="80" r="80"/><path class="cls-2" d="M118.79,58.49v-4l-2.94-1h0a16.5,16.5,0,0,0-.7-2.61l2-2.34-2-3.47-3,.6v0c-.3-.35-.61-.68-.93-1s-.66-.63-1-.93h0l.6-3-3.47-2-2.34,2a16.91,16.91,0,0,0-2.6-.7h0l-1-2.93h-4l-1,2.93h0a17,17,0,0,0-2.61.7l-2.34-2-3.47,2,.6,3h0q-.52.45-1,.93t-.93,1v0l-3-.6-2,3.47,2,2.33a16.62,16.62,0,0,0-.7,2.61h0l-2.94,1v4l2.94,1h0a16.59,16.59,0,0,0,.7,2.6l-2,2.34,2,3.47,3-.6v0c.3.35.61.68.93,1s.66.63,1,.93l-.62,3,3.47,2,2.33-2a16.58,16.58,0,0,0,2.61.7h0l1,2.94h4l1-2.94h0a16.69,16.69,0,0,0,2.61-.7l2.34,2,3.47-2-.6-3h0q.52-.44,1-.93c.32-.32.63-.66.93-1v0l3,.6,2-3.47-2-2.34a16.55,16.55,0,0,0,.7-2.6h0ZM99.44,64.72a8.23,8.23,0,1,1,8.23-8.23A8.23,8.23,0,0,1,99.44,64.72Z"/><path class="cls-3" d="M99.44,46.29a10.2,10.2,0,1,0,10.21,10.2A10.2,10.2,0,0,0,99.44,46.29Zm0,18a7.84,7.84,0,1,1,7.84-7.84A7.84,7.84,0,0,1,99.44,64.33Z"/><path class="cls-4" d="M96.9,97.89V92.13l-4.23-1.44a24,24,0,0,0-1-3.75l2.94-3.36-2.88-5-4.39.86c-.43-.49-.87-1-1.31-1.42s-.94-.9-1.43-1.32l.87-4.38-5-2.88-3.37,2.94a23.89,23.89,0,0,0-3.74-1l-1.44-4.22H66.17l-1.44,4.22a24.23,24.23,0,0,0-3.75,1l-3.36-2.94-5,2.88.87,4.38c-.49.42-1,.87-1.43,1.32s-.91.95-1.34,1.45v0l-4.38-.86-2.88,5,2.94,3.36a25.93,25.93,0,0,0-1,3.75l-4.22,1.44v5.76l4.22,1.44a25.3,25.3,0,0,0,1,3.75l-2.94,3.36,2.88,5,4.38-.87c.42.49.87,1,1.33,1.43s.95.9,1.44,1.33l-.88,4.37,5,2.89L61,117.64a24.43,24.43,0,0,0,3.75,1l1.44,4.23h5.77l1.44-4.23a22.72,22.72,0,0,0,3.75-1l3.36,3,5-2.89-.87-4.38c.49-.42,1-.87,1.43-1.31s.89-.94,1.31-1.43l4.39.87,2.88-5-2.94-3.36a23.7,23.7,0,0,0,1-3.75ZM69.06,103.1A8.09,8.09,0,1,1,77.16,95,8.09,8.09,0,0,1,69.06,103.1Z"/><path class="cls-3" d="M69.06,82.71A12.3,12.3,0,1,0,81.36,95,12.3,12.3,0,0,0,69.06,82.71Zm0,18.8a6.51,6.51,0,1,1,6.5-6.5A6.51,6.51,0,0,1,69.06,101.51Z"/><path class="cls-5" d="M69.06,79a16,16,0,1,0,16,16A16,16,0,0,0,69.06,79Zm0,25.22A9.22,9.22,0,1,1,78.28,95,9.22,9.22,0,0,1,69.06,104.22Z"/></g></g></svg>