<svg xmlns="http://www.w3.org/2000/svg" xmlns:xlink="http://www.w3.org/1999/xlink" viewBox="0 0 555.72 101.59"><defs><style>.cls-1{isolation:isolate;}.cls-2{fill:#ffd05b;}.cls-3{fill:#f9b54c;}.cls-4{fill:none;stroke:#324a5e;stroke-linecap:round;stroke-linejoin:round;stroke-width:5px;}.cls-5{fill:#324a5e;}.cls-6{fill:#eadcb7;}.cls-10,.cls-7,.cls-8{mix-blend-mode:color-burn;}.cls-7{fill:url(#linear-gradient);}.cls-8{fill:url(#linear-gradient-2);}.cls-9{fill:#e2a442;}.cls-10{fill:#b1b1b1;}.cls-11{fill:#fff;opacity:0.3;}.cls-12{fill:#7ca841;}</style><linearGradient id="linear-gradient" x1="485.74" y1="61.73" x2="555.72" y2="61.73" gradientUnits="userSpaceOnUse"><stop offset="0" stop-color="#fff"/><stop offset="1" stop-color="#979797"/></linearGradient><linearGradient id="linear-gradient-2" x1="507.74" y1="15.24" x2="533.71" y2="15.24" xlink:href="#linear-gradient"/></defs><title>Asset 9</title><g class="cls-1"><g id="Layer_2" data-name="Layer 2"><g id="Layer_1-2" data-name="Layer 1"><circle class="cls-2" cx="50.47" cy="25.56" r="25.56"/><path class="cls-3" d="M71.44,56a35.45,35.45,0,0,1-21,6.55,35.45,35.45,0,0,1-21-6.55A50,50,0,0,0,0,101.59H100.61A49.16,49.16,0,0,0,71.44,56Z"/><line class="cls-4" x1="122.21" y1="39" x2="143.21" y2="60"/><line class="cls-4" x1="143.21" y1="39" x2="122.21" y2="60"/><polyline class="cls-4" points="309.71 33.5 325.71 51.5 264.71 51.5"/><polyline class="cls-4" points="309.71 69.5 325.71 51.5 264.71 51.5"/><path class="cls-5" d="M377.77,53a15.05,15.05,0,0,1-4.92,3.92,13.61,13.61,0,0,1-6,1.32,14.08,14.08,0,0,1-10.55-4.62,15.32,15.32,0,0,1-3.05-5.1,18.19,18.19,0,0,1,.13-12.63,15.58,15.58,0,0,1,3.43-5.35A15.79,15.79,0,0,1,362.12,27a17.78,17.78,0,0,1,6.82-1.27,18,18,0,0,1,7.67,1.57,15.12,15.12,0,0,1,5.67,4.55,21.36,21.36,0,0,1,3.53,7.52A39.16,39.16,0,0,1,387,49.59a44.05,44.05,0,0,1-1.3,11.28,23.71,23.71,0,0,1-3.78,8.2A15.66,15.66,0,0,1,376,74a18.4,18.4,0,0,1-7.87,1.62A16.23,16.23,0,0,1,360.6,74a12.82,12.82,0,0,1-4.87-4.1,8.43,8.43,0,0,1-1.67-4.72,3.55,3.55,0,0,1,1-2.5,3.45,3.45,0,0,1,2.63-1.1,4.48,4.48,0,0,1,2.63.82,5,5,0,0,1,1.77,2.45A6.7,6.7,0,0,0,364.57,68a6.43,6.43,0,0,0,3.83,1.22,7.17,7.17,0,0,0,3.6-1,8.69,8.69,0,0,0,2.9-2.73Q377.3,62,377.77,53ZM377,42.76a13.59,13.59,0,0,0-.62-4.18,10.34,10.34,0,0,0-1.73-3.32,8.18,8.18,0,0,0-2.67-2.2,7.27,7.27,0,0,0-3.38-.8A6.68,6.68,0,0,0,363.24,35a11.07,11.07,0,0,0-2.2,7.18,10.67,10.67,0,0,0,2.2,7.07,7,7,0,0,0,5.57,2.63,7.81,7.81,0,0,0,4-1.08,8.28,8.28,0,0,0,3.07-3.15A9.63,9.63,0,0,0,377,42.76Z"/><path class="cls-5" d="M395.1,38.39a11.78,11.78,0,0,1,1.82-6.28,12.83,12.83,0,0,1,5.33-4.72,18.08,18.08,0,0,1,8.22-1.77,21.38,21.38,0,0,1,7,1,14.21,14.21,0,0,1,5,2.85,11.66,11.66,0,0,1,3,4.1,12.31,12.31,0,0,1,1,4.85,10.4,10.4,0,0,1-1.68,5.83,12.25,12.25,0,0,1-5,4.2,14.08,14.08,0,0,1,4.7,2.88,11.75,11.75,0,0,1,2.82,4.13,13.8,13.8,0,0,1,.95,5.22,14.61,14.61,0,0,1-2,7.62,13.82,13.82,0,0,1-6,5.35,20.79,20.79,0,0,1-9.27,1.93,21.28,21.28,0,0,1-9.47-1.93,13.68,13.68,0,0,1-5.93-5.32,14.62,14.62,0,0,1-2-7.58q0-9,8.47-12.3Q395.1,45.29,395.1,38.39ZM419,60.46a9.24,9.24,0,0,0-1.07-4.53,7.28,7.28,0,0,0-3-3,9,9,0,0,0-4.33-1,7.8,7.8,0,0,0-5.7,2.27,8.49,8.49,0,0,0-2.3,6.33,9.41,9.41,0,0,0,1.08,4.58,7.77,7.77,0,0,0,2.95,3.07,8.56,8.56,0,0,0,8.37,0,7.74,7.74,0,0,0,2.93-3.1A9.63,9.63,0,0,0,419,60.46ZM410.67,32a6.76,6.76,0,0,0-5,1.95,6.85,6.85,0,0,0-1.92,5,6.26,6.26,0,0,0,2,4.72,7,7,0,0,0,5.07,1.88,7.79,7.79,0,0,0,2.85-.5,6.56,6.56,0,0,0,2.2-1.38,6.1,6.1,0,0,0,1.42-2.1,7,7,0,0,0,.5-2.68,7.07,7.07,0,0,0-.88-3.53,6.39,6.39,0,0,0-2.48-2.47A7.35,7.35,0,0,0,410.67,32Z"/><path class="cls-5" d="M468.44,50.89a57.15,57.15,0,0,1-.67,9.4,21.89,21.89,0,0,1-2.47,7.13,16.38,16.38,0,0,1-5.87,6.07,15.94,15.94,0,0,1-17.08-.73,17.45,17.45,0,0,1-6.05-7.93,29.5,29.5,0,0,1-1.52-6.12,50.88,50.88,0,0,1-.48-7.25,69.65,69.65,0,0,1,.53-9.07,29.94,29.94,0,0,1,1.67-6.93,14.92,14.92,0,0,1,14.67-9.83,16.69,16.69,0,0,1,6.23,1.12A14.22,14.22,0,0,1,462.32,30a18.68,18.68,0,0,1,3.58,5.32Q468.44,40.83,468.44,50.89Zm-9.13-.67a55.52,55.52,0,0,0-.73-10,12.28,12.28,0,0,0-2.47-5.87,6,6,0,0,0-4.8-2q-4.4,0-6.12,4.43t-1.72,13.67a58.75,58.75,0,0,0,.73,10.27,12.9,12.9,0,0,0,2.47,6,6.44,6.44,0,0,0,9.5-.08,13.23,13.23,0,0,0,2.43-6.1A62.14,62.14,0,0,0,459.3,50.23Z"/><path class="cls-6" d="M555.17,83.86c-1.66-6.92,2.62-42.8-30-56.41H516.3c-32.63,13.61-28.35,49.49-30,56.41-1.48,6.15.29,8.28,2,9.1s6.15-1.07,8.94-.57S508.1,96,520.73,96s20.66-3.12,23.45-3.61,7.18,1.39,8.94.57S556.64,90,555.17,83.86Z"/><path class="cls-7" d="M555.17,83.86c-1.66-6.92,2.62-42.8-30-56.41H516.3c-32.63,13.61-28.35,49.49-30,56.41-1.48,6.15.29,8.28,2,9.1s6.15-1.07,8.94-.57S508.1,96,520.73,96s20.66-3.12,23.45-3.61,7.18,1.39,8.94.57S556.64,90,555.17,83.86Z"/><path class="cls-6" d="M533.62,10.5c-.72-1.32-5,1-7.6,3.11-2.41,2-2.81-5.71-5.29-5.71s-2.88,7.69-5.29,5.71c-2.6-2.13-6.89-4.43-7.6-3.11s2.46,1.58,7.62,12.09H526C531.16,12.08,534.31,11.76,533.62,10.5Z"/><path class="cls-8" d="M533.62,10.5c-.72-1.32-5,1-7.6,3.11-2.41,2-2.81-5.71-5.29-5.71s-2.88,7.69-5.29,5.71c-2.6-2.13-6.89-4.43-7.6-3.11s2.46,1.58,7.62,12.09H526C531.16,12.08,534.31,11.76,533.62,10.5Z"/><path class="cls-9" d="M526.52,28H514.94a1.15,1.15,0,0,1,0-2.3h11.59a1.15,1.15,0,0,1,0,2.3Z"/><path class="cls-10" d="M514.94,28h11.59a1.15,1.15,0,0,0,1.15-1.15H513.79A1.15,1.15,0,0,0,514.94,28Z"/><path class="cls-9" d="M526.52,25.7H514.94a1.15,1.15,0,1,1,0-2.3h11.59a1.15,1.15,0,1,1,0,2.3Z"/><path class="cls-10" d="M514.94,25.7h11.59a1.15,1.15,0,0,0,1.15-1.15H513.79A1.15,1.15,0,0,0,514.94,25.7Z"/><path class="cls-9" d="M526.52,23.41H514.94a1.15,1.15,0,0,1,0-2.3h11.59a1.15,1.15,0,0,1,0,2.3Z"/><path class="cls-10" d="M514.94,23.41h11.59a1.15,1.15,0,0,0,1.15-1.15H513.79A1.15,1.15,0,0,0,514.94,23.41Z"/><circle class="cls-11" cx="520.73" cy="68.18" r="19.13"/><path class="cls-12" d="M522.9,53c0,.1,0,.21,0,.31,0,.89,0,1.79,0,2.68,0,.22.08.33.28.36a8,8,0,0,1,1.3.35,8.23,8.23,0,0,1,3.62,2.37,6.57,6.57,0,0,1,1.47,3.09,13.18,13.18,0,0,1,.17,1.32c0,.2,0,.27-.23.26h-4.18c-.37,0-.37,0-.41-.36a3.21,3.21,0,0,0-1-2,9.61,9.61,0,0,0-.87-.6c-.08-.06-.12,0-.13.07s0,.11,0,.17c0,1.77,0,3.53,0,5.3,0,.2.05.3.26.34a19.07,19.07,0,0,1,2.75.73,8,8,0,0,1,2.74,1.49,5.39,5.39,0,0,1,1.68,3,7.59,7.59,0,0,1-.18,3.8A6.8,6.8,0,0,1,527.85,79a8.88,8.88,0,0,1-3.67,1.66,7.38,7.38,0,0,1-1.07.2c-.17,0-.2.12-.2.27,0,.61,0,1.23,0,1.84,0,.31,0,.32-.33.32h-3.72c-.34,0-.34,0-.34-.35,0-.6,0-1.21,0-1.81,0-.21-.06-.29-.28-.32a10.21,10.21,0,0,1-4.5-1.76,6.65,6.65,0,0,1-2.29-3,7.64,7.64,0,0,1-.52-2.64c0-.22.07-.29.29-.29h4.18c.19,0,.27.05.3.25a4,4,0,0,0,1.06,2.28,4.09,4.09,0,0,0,1.58.91c.11,0,.17,0,.17-.11s0-.1,0-.15c0-1.9,0-3.8,0-5.71a.33.33,0,0,0-.31-.39,20.39,20.39,0,0,1-3.34-1,5.44,5.44,0,0,1-3.47-4.44,8.06,8.06,0,0,1,.11-3.14,6.67,6.67,0,0,1,1.91-3.27,7.68,7.68,0,0,1,3.74-1.95,8,8,0,0,1,1.09-.21c.2,0,.27-.1.26-.31,0-.86,0-1.73,0-2.59,0-.1,0-.21,0-.31Zm0,21c0,.81,0,1.63,0,2.44,0,.15,0,.26.21.22a3.19,3.19,0,0,0,2.23-1.46,2.28,2.28,0,0,0-.77-3.22,11,11,0,0,0-1.42-.6c-.22-.09-.25-.06-.25.18Q522.92,72.83,522.92,74.05ZM518.53,63c0-.77,0-1.53,0-2.3,0-.2-.06-.27-.26-.19s-.46.16-.68.26a2.44,2.44,0,0,0-1.66,2.44A2,2,0,0,0,517.09,65a7.47,7.47,0,0,0,1.14.45c.26.09.3.06.3-.21Q518.53,64.11,518.53,63Z"/><path class="cls-5" d="M185.37,70.5V64.34H168.75A6.83,6.83,0,0,1,164,62.92,5,5,0,0,1,162.46,59a3.77,3.77,0,0,1,.23-1.27,6.57,6.57,0,0,1,.7-1.36q.46-.71,1-1.37l1.23-1.62,17.55-23.48A26.7,26.7,0,0,1,186,26.57a3.75,3.75,0,0,1,2.67-1q5,0,5,5.76V56.92h1.42a10.06,10.06,0,0,1,4.09.7q1.54.7,1.54,3a3.17,3.17,0,0,1-1.26,2.8,6.63,6.63,0,0,1-3.77.88h-2V70.5a5.5,5.5,0,0,1-1.13,3.79,4.22,4.22,0,0,1-6,0A5.47,5.47,0,0,1,185.37,70.5ZM171.13,56.92h14.24V37.68Z"/><path class="cls-5" d="M239,50.9a56.7,56.7,0,0,1-.66,9.34,21.76,21.76,0,0,1-2.45,7.09,16.28,16.28,0,0,1-5.83,6,15.83,15.83,0,0,1-17-.73,17.32,17.32,0,0,1-6-7.88,29.31,29.31,0,0,1-1.51-6.08,50.62,50.62,0,0,1-.48-7.2,69.28,69.28,0,0,1,.53-9,29.75,29.75,0,0,1,1.66-6.89,14.82,14.82,0,0,1,14.57-9.77,16.57,16.57,0,0,1,6.19,1.11,14.14,14.14,0,0,1,4.88,3.25,18.54,18.54,0,0,1,3.56,5.28Q239,40.9,239,50.9Zm-9.07-.66a55.2,55.2,0,0,0-.73-9.92,12.2,12.2,0,0,0-2.45-5.83,6,6,0,0,0-4.77-2q-4.37,0-6.08,4.4T214.21,50.5a58.41,58.41,0,0,0,.73,10.2,12.81,12.81,0,0,0,2.45,6,6.4,6.4,0,0,0,9.44-.08,13.15,13.15,0,0,0,2.42-6.06A61.74,61.74,0,0,0,229.94,50.23Z"/></g></g></g></svg>