<svg xmlns="http://www.w3.org/2000/svg" viewBox="0 0 160 160"><defs><style>.cls-1{fill:#fc6f58;}.cls-2{fill:#40596b;}.cls-3{fill:#334a5e;}.cls-4{fill:#84dbff;}.cls-5{fill:#fff;}.cls-6{fill:#ffd15c;}.cls-7{fill:#ff7058;}</style></defs><title>Asset 3</title><g id="Layer_2" data-name="Layer 2"><g id="Layer_1-2" data-name="Layer 1"><circle class="cls-1" cx="80" cy="80" r="80"/><path class="cls-2" d="M106.49,65.89H39.17a4.07,4.07,0,0,0-4.06,4.06v53.13a4.07,4.07,0,0,0,4.06,4.06h67.32a4.07,4.07,0,0,0,4.06-4.06V69.95A4.07,4.07,0,0,0,106.49,65.89Z"/><path class="cls-3" d="M127,66.09l-16.42,9.73v41.36L127,126.92a4.08,4.08,0,0,0,5.47-3.85V69.74A4,4,0,0,0,127,66.09Z"/><circle class="cls-4" cx="92.49" cy="48.05" r="18.05"/><circle class="cls-2" cx="92.49" cy="48.05" r="1.62"/><circle class="cls-5" cx="92.49" cy="37.1" r="4.66"/><circle class="cls-5" cx="92.49" cy="59" r="4.66"/><circle class="cls-5" cx="103.44" cy="48.05" r="4.66"/><circle class="cls-5" cx="81.55" cy="48.05" r="4.66"/><circle class="cls-4" cx="53.16" cy="48.05" r="18.05"/><circle class="cls-2" cx="53.16" cy="48.05" r="1.62"/><circle class="cls-5" cx="53.16" cy="37.1" r="4.66"/><circle class="cls-5" cx="53.16" cy="59" r="4.66"/><circle class="cls-5" cx="64.11" cy="48.05" r="4.66"/><circle class="cls-5" cx="42.21" cy="48.05" r="4.66"/><rect class="cls-6" x="41.19" y="104.82" width="28.39" height="16.22"/><circle class="cls-7" cx="85.4" cy="112.93" r="2.64"/><circle class="cls-7" cx="94.72" cy="112.93" r="2.64"/></g></g></svg>