<svg xmlns="http://www.w3.org/2000/svg" viewBox="0 0 447 160"><defs><style>.cls-1{fill:#ff7058;}.cls-2{fill:#f1543f;}.cls-3{fill:#fff;}.cls-4,.cls-7{fill:none;stroke-linecap:round;stroke-linejoin:round;}.cls-4{stroke:#324a5e;stroke-width:5px;}.cls-5{fill:#324a5e;}.cls-6{fill:#ffcd00;}.cls-7{stroke:#fff;stroke-width:7px;}</style></defs><title>Asset 7</title><g id="Layer_2" data-name="Layer 2"><g id="Layer_1-2" data-name="Layer 1"><circle class="cls-1" cx="53.23" cy="55.96" r="26.96"/><path class="cls-2" d="M75.35,88.11A37.39,37.39,0,0,1,53.23,95a37.39,37.39,0,0,1-22.12-6.91A52.71,52.71,0,0,0,0,136.15H106.12A51.85,51.85,0,0,0,75.35,88.11Z"/><path class="cls-3" d="M46.27,127.85h-7.5a3.1,3.1,0,0,1-2.32-.73,3.27,3.27,0,0,1-.69-2.32V106.37a3.21,3.21,0,0,1,.71-2.33,3.16,3.16,0,0,1,2.3-.71h7.95a18.54,18.54,0,0,1,3,.22,6.49,6.49,0,0,1,2.31.84,6.06,6.06,0,0,1,1.54,1.31,5.8,5.8,0,0,1,1,1.76,5.88,5.88,0,0,1,.35,2,5.64,5.64,0,0,1-3.68,5.39q4.84,1.54,4.84,6a6.73,6.73,0,0,1-1.05,3.71A6.33,6.33,0,0,1,52.25,127a10.11,10.11,0,0,1-2.58.66A26.26,26.26,0,0,1,46.27,127.85Zm-5.54-20.8v6.34h4.55a9.14,9.14,0,0,0,2.87-.35,2.74,2.74,0,0,0,1.55-1.34,3,3,0,0,0,.42-1.57,2.44,2.44,0,0,0-1.32-2.47,10.1,10.1,0,0,0-4-.61Zm5.17,9.9H40.74v7.16h5.34q5,0,5-3.63a3,3,0,0,0-1.3-2.69A7.31,7.31,0,0,0,45.91,117Z"/><path class="cls-3" d="M65.31,105.92v17.85H75.38a2.66,2.66,0,0,1,1.85.59,1.91,1.91,0,0,1,.64,1.47,1.86,1.86,0,0,1-.64,1.46,2.73,2.73,0,0,1-1.86.56h-12a2.6,2.6,0,0,1-3-3V105.92a3.28,3.28,0,0,1,.68-2.26,2.28,2.28,0,0,1,1.78-.75,2.37,2.37,0,0,1,1.82.74A3.23,3.23,0,0,1,65.31,105.92Z"/><line class="cls-4" x1="121" y1="71" x2="142" y2="92"/><line class="cls-4" x1="142" y1="71" x2="121" y2="92"/><path class="cls-5" d="M170.15,78a5.71,5.71,0,0,0,3.71-1.27,4.41,4.41,0,0,0,1.56-3.63A4.34,4.34,0,0,0,174.18,70a4.42,4.42,0,0,0-3.35-1.3,6,6,0,0,0-2.36.4A3.79,3.79,0,0,0,167,70.15a8,8,0,0,0-1,1.69q-.48,1-.88,1.95a1.65,1.65,0,0,1-.84.77,3.32,3.32,0,0,1-1.41.28,2.43,2.43,0,0,1-1.72-.76,2.7,2.7,0,0,1-.79-2,5.36,5.36,0,0,1,.74-2.57,9.36,9.36,0,0,1,2.16-2.57,10.84,10.84,0,0,1,3.53-2,14.19,14.19,0,0,1,4.71-.74,13.13,13.13,0,0,1,4.15.62,9.69,9.69,0,0,1,3.26,1.79A7.74,7.74,0,0,1,181,69.35a8,8,0,0,1,.7,3.33,7.59,7.59,0,0,1-1,4A13.56,13.56,0,0,1,177.74,80a12.92,12.92,0,0,1,3.08,2.25,8.41,8.41,0,0,1,2.52,6.12,10.35,10.35,0,0,1-.86,4.13A10.52,10.52,0,0,1,180,96,12,12,0,0,1,176,98.45a14,14,0,0,1-5.05.88,12.09,12.09,0,0,1-5-1,11.6,11.6,0,0,1-3.67-2.52,11.47,11.47,0,0,1-2.18-3.13,6.79,6.79,0,0,1-.74-2.67,2.88,2.88,0,0,1,.88-2.19,3.06,3.06,0,0,1,2.19-.83,2.33,2.33,0,0,1,1.27.39,1.83,1.83,0,0,1,.8.93,15.78,15.78,0,0,0,2.61,4.84A5,5,0,0,0,171,94.71a5.9,5.9,0,0,0,2.8-.71A5.84,5.84,0,0,0,176,91.88a6,6,0,0,0,.88-3.26,5.94,5.94,0,0,0-1.5-4.3,5.52,5.52,0,0,0-4.17-1.56q-.47,0-1.45.09t-1.27.09a2.84,2.84,0,0,1-2-.64,2.31,2.31,0,0,1-.7-1.79,2.23,2.23,0,0,1,.84-1.82,3.89,3.89,0,0,1,2.51-.69Z"/><polyline class="cls-4" points="247.5 64.5 263.5 82.5 202.5 82.5"/><polyline class="cls-4" points="247.5 100.5 263.5 82.5 202.5 82.5"/><path class="cls-6" d="M367,160A80,80,0,0,1,310.41,23.41,80,80,0,0,1,423.59,136.59h0A79.49,79.49,0,0,1,367,160Z"/><path class="cls-3" d="M380.07,101.16a2.89,2.89,0,0,1-2-4.93l32.65-32.65a2.89,2.89,0,0,1,4.08,4.08l-32.65,32.65A2.88,2.88,0,0,1,380.07,101.16Z"/><path class="cls-3" d="M386.78,73.31a8.66,8.66,0,1,1,6.12-14.78h0a8.65,8.65,0,0,1-6.12,14.78Zm0-11.54a2.89,2.89,0,1,0,2,.85h0A2.87,2.87,0,0,0,386.78,61.77Z"/><path class="cls-3" d="M407.95,106a8.66,8.66,0,1,1,6.12-14.78h0A8.66,8.66,0,0,1,407.95,106Zm0-11.55a2.89,2.89,0,0,0-2,4.93,3,3,0,0,0,4.08,0,2.88,2.88,0,0,0,0-4.08h0A2.87,2.87,0,0,0,407.95,94.45Z"/><path class="cls-3" d="M360.62,97.79V76.46q-6,4.57-8,4.57a2.37,2.37,0,0,1-1.75-.79,2.53,2.53,0,0,1-.76-1.82,2.05,2.05,0,0,1,.75-1.76,16.63,16.63,0,0,1,2.65-1.45A19.77,19.77,0,0,0,358,72.4a19.19,19.19,0,0,0,3-3.3q1.31-1.83,1.71-2.25a2,2,0,0,1,1.5-.42,2.4,2.4,0,0,1,2,1A4.2,4.2,0,0,1,367,70V96.87q0,4.71-3.21,4.71a2.94,2.94,0,0,1-2.3-1A4.11,4.11,0,0,1,360.62,97.79Z"/><line class="cls-7" x1="317" y1="84.41" x2="336" y2="84.59"/><line class="cls-7" x1="326.59" y1="75" x2="326.41" y2="94"/></g></g></svg>