<svg xmlns="http://www.w3.org/2000/svg" viewBox="0 0 160 160"><defs><style>.cls-1{fill:#fc6f58;}.cls-2{fill:#2b3b4e;}.cls-3{fill:#272525;}.cls-4{fill:#324a5e;}.cls-5{fill:#84dbff;}</style></defs><title>Asset 2</title><g id="Layer_2" data-name="Layer 2"><g id="Layer_1-2" data-name="Layer 1"><circle class="cls-1" cx="80" cy="80" r="80"/><rect class="cls-2" x="65.7" y="101.93" width="28.61" height="19.07"/><rect class="cls-3" x="79.96" y="101.93" width="14.35" height="19.07"/><path class="cls-4" d="M124.26,108.28H35.74a3.42,3.42,0,0,1-3.42-3.42V45a3.42,3.42,0,0,1,3.42-3.42h88.51A3.42,3.42,0,0,1,127.68,45v59.91A3.42,3.42,0,0,1,124.26,108.28Z"/><path class="cls-2" d="M124.26,41.54H80v66.75h44.3a3.42,3.42,0,0,0,3.42-3.42V45A3.42,3.42,0,0,0,124.26,41.54Z"/><rect class="cls-5" x="36.37" y="45.44" width="87.26" height="58.95"/><polygon class="cls-4" points="68.05 92.22 52.6 76.77 68.05 61.32 71.48 64.75 59.46 76.77 71.48 88.79 68.05 92.22"/><polygon class="cls-2" points="90.6 92.22 87.17 88.79 99.2 76.77 87.17 64.75 90.6 61.32 106.06 76.77 90.6 92.22"/><polygon class="cls-2" points="80.13 61.57 79.95 62.28 79.95 82.77 84.84 62.72 80.13 61.57"/><polygon class="cls-4" points="73 90.82 77.72 91.97 79.95 82.77 79.95 62.28 73 90.82"/><rect class="cls-4" x="60.93" y="117.82" width="38.14" height="9.54"/><rect class="cls-2" x="79.96" y="117.82" width="19.12" height="9.54"/></g></g></svg>