<svg xmlns="http://www.w3.org/2000/svg" viewBox="0 0 160 160"><defs><style>.cls-1{fill:#1a91a1;}.cls-2{fill:#fff;}.cls-3{fill:#ff5b61;}</style></defs><title>Asset 1</title><g id="Layer_2" data-name="Layer 2"><g id="Layer_1-2" data-name="Layer 1"><path class="cls-1" d="M80,160A80,80,0,1,0,0,80,80.15,80.15,0,0,0,80,160Z"/><path class="cls-2" d="M98.4,40.09,63,39.54c.92,14.75-2.83,30.11-10.08,45.94l25.67,58.47-1.39-50.9,0-1.82a5.63,5.63,0,0,1-2.42-4.77,5.23,5.23,0,1,1,10.44.16,5.63,5.63,0,0,1-2.57,4.7l-.1,1.81-3,50.83,27.47-57.65c-6.76-16-10-31.52-8.65-46.23Z"/><path class="cls-2" d="M81,39.82l-18-.28c.92,14.75-2.83,30.11-10.08,45.94l25.67,58.47-1.39-50.9,0-1.82a5.63,5.63,0,0,1-2.42-4.77A5.39,5.39,0,0,1,80.08,81l.46,0L81,39.82ZM79.78,140.46h0l0,3.16-.16.35.2-3.51Z"/><path class="cls-3" d="M57.34,3.28l.89,30.65,0,2.54c-.07,4.4,3,4,6.69,4.08L95.09,41c3.71.06,6.75.54,6.82-3.87l0-2.4,1.81-31.14a79.89,79.89,0,0,0-46.42-.33Z"/><path class="cls-3" d="M57.34,3.28l.89,30.65,0,2.54c-.07,4.4,3,4,6.69,4.08l15.83.24L81.17,0,80,0A79.58,79.58,0,0,0,57.34,3.28Z"/></g></g></svg>